<svg xmlns="http://www.w3.org/2000/svg" width="100" height="100" fill="none" viewBox="0 0 100 100"><path fill="#000" fill-rule="evenodd" d="M49.995 37.956c-11.749 0-21.276 9.528-21.276 21.289 0 9.97 3.125 19.196 8.443 26.785a4.167 4.167 0 0 1-6.824 4.782 54.83 54.83 0 0 1-9.953-31.567c0-16.36 13.255-29.623 29.61-29.623s29.61 13.263 29.61 29.623a4.167 4.167 0 0 1-8.334 0c0-11.761-9.528-21.29-21.276-21.29" clip-rule="evenodd"/><path fill="#000" fill-rule="evenodd" d="M49.995 37.956c-11.748 0-21.276 9.528-21.276 21.289 0 9.97 3.126 19.196 8.444 26.785a4.167 4.167 0 0 1-6.825 4.782 54.83 54.83 0 0 1-9.952-31.567c0-16.36 13.255-29.623 29.61-29.623s29.609 13.263 29.609 29.623a4.167 4.167 0 0 1-8.334 0c0-11.761-9.527-21.29-21.276-21.29" clip-rule="evenodd"/><path fill="#000" fill-rule="evenodd" d="M50.003 55.078a4.167 4.167 0 0 1 4.167 4.166c0 11.76 9.528 21.29 21.276 21.29.19 0 .323-.01.552-.026.144-.01.327-.022.587-.036a4.167 4.167 0 0 1 .463 8.32l-.213.014c-.336.023-.903.06-1.389.06-16.354 0-29.61-13.262-29.61-29.622a4.167 4.167 0 0 1 4.167-4.166" clip-rule="evenodd"/><path fill="#000" fill-rule="evenodd" d="M50.004 55.078a4.167 4.167 0 0 1 4.167 4.167c0 11.76 9.527 21.289 21.276 21.289.19 0 .323-.01.551-.025.145-.01.328-.022.588-.037a4.167 4.167 0 0 1 .462 8.32l-.212.014c-.337.023-.903.061-1.39.061-16.354 0-29.609-13.263-29.609-29.622a4.167 4.167 0 0 1 4.167-4.167" clip-rule="evenodd"/><path fill="#000" fill-rule="evenodd" d="M7.674 59.245c0-23.39 18.953-42.35 42.333-42.35s42.333 18.96 42.333 42.35c0 9.33-7.562 16.894-16.89 16.894s-16.89-7.564-16.89-16.894c0-4.73-3.834-8.562-8.557-8.562s-8.557 3.832-8.557 8.562c0 12.183 6.406 22.873 16.048 28.886a4.167 4.167 0 1 1-4.41 7.07c-11.978-7.469-19.971-20.775-19.971-35.956 0-9.33 7.562-16.895 16.89-16.895s16.89 7.564 16.89 16.895c0 4.73 3.833 8.56 8.557 8.56s8.557-3.83 8.557-8.56c0-18.79-15.225-34.017-34-34.017s-34 15.226-34 34.017c0 4.388.491 8.667 1.397 12.798a4.167 4.167 0 1 1-8.14 1.785 68 68 0 0 1-1.59-14.583" clip-rule="evenodd"/><path fill="#000" fill-rule="evenodd" d="M7.674 59.245c0-23.39 18.953-42.35 42.333-42.35s42.333 18.96 42.333 42.35c0 9.33-7.562 16.894-16.89 16.894s-16.89-7.564-16.89-16.894c0-4.73-3.834-8.562-8.557-8.562s-8.557 3.832-8.557 8.562c0 12.183 6.406 22.873 16.048 28.886a4.167 4.167 0 1 1-4.41 7.07c-11.978-7.469-19.971-20.775-19.971-35.956 0-9.33 7.562-16.895 16.89-16.895s16.89 7.564 16.89 16.895c0 4.73 3.833 8.56 8.557 8.56s8.557-3.83 8.557-8.56c0-18.79-15.225-34.017-34-34.017s-34 15.226-34 34.017c0 4.388.491 8.667 1.397 12.798a4.167 4.167 0 1 1-8.14 1.785 68 68 0 0 1-1.59-14.583" clip-rule="evenodd"/><path fill="#000" fill-rule="evenodd" d="M11.35 21.677C20.779 10.967 34.585 4.167 50 4.167c15.416 0 29.223 6.8 38.651 17.51a4.167 4.167 0 0 1-6.254 5.506C74.473 18.183 62.908 12.5 50 12.5s-24.473 5.683-32.396 14.683a4.167 4.167 0 0 1-6.255-5.506" clip-rule="evenodd"/><path fill="#000" fill-rule="evenodd" d="M11.35 21.677C20.779 10.967 34.585 4.167 50 4.167c15.416 0 29.223 6.8 38.651 17.51a4.167 4.167 0 0 1-6.254 5.506C74.473 18.183 62.908 12.5 50 12.5s-24.473 5.683-32.396 14.683a4.167 4.167 0 0 1-6.255-5.506" clip-rule="evenodd"/></svg>