<svg xmlns="http://www.w3.org/2000/svg" width="61" height="20" fill="none" viewBox="0 0 61 20"><g clip-path="url(#a)"><path fill="#17B26A" fill-rule="evenodd" d="M11.5 5.833a1 1 0 0 1 1-1h5.833a1 1 0 0 1 1 1v5.834a1 1 0 1 1-2 0v-3.42l-4.87 4.872a8 8 0 0 1-.435.413c-.153.13-.357.278-.628.367-.368.12-.765.12-1.133 0a1.9 1.9 0 0 1-.629-.367 8 8 0 0 1-.455-.434l-2.28-2.281-.236-.233-.028.026c-.058.056-.124.123-.208.207l-4.057 4.057A1 1 0 0 1 .96 13.46l4.057-4.058.02-.02a8 8 0 0 1 .435-.414 1.9 1.9 0 0 1 .628-.366c.368-.12.765-.12 1.133 0 .27.088.475.236.629.366.138.117.287.267.434.413l.02.021 2.282 2.282c.084.084.15.15.208.206l.027.026.028-.026c.058-.056.124-.122.208-.207l4.85-4.85H12.5a1 1 0 0 1-1-1" clip-rule="evenodd"/></g><path fill="#067647" d="M29.2 4.818V15h-1.541V6.36h-.06l-2.436 1.59V6.48l2.54-1.66zm6.299 10.351q-1.179-.005-2.014-.621-.836-.617-1.277-1.795-.443-1.179-.443-2.839 0-1.656.443-2.829.447-1.173 1.282-1.79.84-.615 2.009-.616 1.169 0 2.003.621.836.617 1.278 1.79.447 1.169.447 2.824 0 1.665-.442 2.844-.442 1.173-1.278 1.795-.834.616-2.008.616m0-1.327q1.035 0 1.615-1.01.587-1.008.587-2.918 0-1.268-.268-2.143-.264-.879-.76-1.332a1.67 1.67 0 0 0-1.174-.457q-1.03 0-1.616 1.014t-.592 2.918q0 1.272.264 2.153.268.875.76 1.327.493.448 1.184.448m9.037 1.327q-1.179-.005-2.014-.621-.834-.617-1.277-1.795-.443-1.179-.443-2.839 0-1.656.443-2.829.448-1.173 1.282-1.79.84-.615 2.009-.616 1.169 0 2.003.621.835.617 1.278 1.79.447 1.169.448 2.824 0 1.665-.443 2.844-.442 1.173-1.278 1.795-.834.616-2.008.616m0-1.327q1.034 0 1.616-1.01.585-1.008.586-2.918 0-1.268-.268-2.143-.265-.879-.76-1.332a1.67 1.67 0 0 0-1.174-.457q-1.03 0-1.616 1.014t-.592 2.918q0 1.272.264 2.153.269.875.76 1.327.493.448 1.184.448m10.807-.751v-.537q0-.577.238-1.054.244-.482.706-.77.468-.294 1.129-.294.676 0 1.134.288.458.29.69.771.24.483.24 1.059v.537q0 .576-.24 1.059-.238.477-.7.77-.458.29-1.124.289-.67 0-1.133-.288a1.9 1.9 0 0 1-.702-.771 2.35 2.35 0 0 1-.238-1.06m1.158-.537v.537q0 .427.204.776.204.347.711.347.502 0 .701-.348.2-.348.199-.775v-.537q0-.428-.194-.776-.189-.348-.706-.348-.497 0-.706.348-.21.348-.209.776m-6.279-5.29v-.537q0-.576.239-1.059.244-.482.706-.77.467-.29 1.128-.289.677 0 1.134.289.458.288.69.77.235.483.234 1.06v.536q0 .577-.238 1.06a1.9 1.9 0 0 1-.696.77q-.458.288-1.124.288-.676 0-1.138-.288a1.9 1.9 0 0 1-.696-.77 2.35 2.35 0 0 1-.239-1.06m1.163-.537v.537q0 .428.2.776.203.348.71.348.498 0 .696-.348.204-.348.204-.776v-.537q0-.427-.194-.775-.193-.348-.706-.348-.497 0-.706.348-.204.348-.203.775M50.696 15l7-10.182h1.188l-7 10.182z"/><defs><clipPath id="a"><path fill="#fff" d="M0 0h20v20H0z"/></clipPath></defs></svg>