<svg xmlns="http://www.w3.org/2000/svg" width="315" height="76" fill="none" viewBox="0 0 315 76"><path fill="url(#a)" d="M313 2c-50.528 1.95-53.657 48.625-103.667 54-41.239 4.433-62.121-20.73-103.666-18C60.605 40.96 46.185 67.18 2 74h311z" opacity=".1"/><path fill="#17B26A" fill-rule="evenodd" d="M314.499 1.942a1.5 1.5 0 0 1-1.441 1.557c-24.676.952-37.74 12.754-51.056 25.308l-.948.893c-13.042 12.308-26.609 25.11-51.56 27.791-20.981 2.256-36.79-3.035-52.37-8.435l-.981-.34c-15.251-5.289-30.374-10.533-50.378-9.22-22.206 1.46-36.847 8.631-51.561 16.384q-1.293.681-2.587 1.367c-13.913 7.361-28.32 14.984-49.388 18.236a1.5 1.5 0 0 1-.458-2.965C22.33 69.345 36.34 61.934 50.262 54.569q1.271-.672 2.544-1.343c14.808-7.803 29.907-15.221 52.763-16.723 20.615-1.354 36.236 4.064 51.439 9.338l1.098.38c15.556 5.392 30.808 10.465 51.067 8.288 23.94-2.574 36.862-14.764 49.929-27.091l.842-.794C273.326 14.009 287.091 1.499 312.942.5a1.5 1.5 0 0 1 1.557 1.441" clip-rule="evenodd"/><defs><linearGradient id="a" x1="313" x2="313" y1="0" y2="74" gradientUnits="userSpaceOnUse"><stop stop-color="#17B26A"/><stop offset="1" stop-color="#17B26A" stop-opacity="0"/></linearGradient></defs></svg>